# xmcd CD database file
#
# Track frame offsets:
#	150
#	14173
#	31969
#	45346
#	66622
#	84097
#	96754
#	112302
#	134821
#	148207
#	164209
#	174803
#	188020
#	213782
#	225441
#
# Disc length: 3299 seconds
#
# Revision: 0
# Processed by: cddbd v1.5.1PL0 Copyright (c) Steve Scherf et al.
# Submitted via: CDex 1.50Beta7
#
DISCID=d60ce10f
DTITLE=Madeline Sandman - Madeline and the Mike Moran Trio
DYEAR=2002
DGENRE=Jazz
TTITLE0=Close Your Eyes
TTITLE1=I'm a Fool to Want You
TTITLE2=No Moon at All
TTITLE3=You've Changed
TTITLE4=When October Goes
TTITLE5=Girl (Boy) from Ipanema
TTITLE6=I Wish You Love
TTITLE7=Guess I'll Hang my Tears Out to Dry
TTITLE8=Do Nothin' Till You Hear From Me
TTITLE9=I Got Lost in His Arms
TTITLE10=I Remember You
TTITLE11=In the Wee Small Hours of the Morning
TTITLE12=You go to My Head
TTITLE13=It's Just the Gypsy in my Soul
TTITLE14=For All We Know
EXTD=YEAR: 2002
EXTT0=
EXTT1=
EXTT2=
EXTT3=
EXTT4=
EXTT5=
EXTT6=
EXTT7=
EXTT8=
EXTT9=
EXTT10=
EXTT11=
EXTT12=
EXTT13=
EXTT14=
PLAYORDER=
